<svg width="468" height="691" viewBox="0 0 468 691" fill="none" xmlns="http://www.w3.org/2000/svg">
<rect opacity="0.7" x="0.5" y="0.543945" width="467" height="689" rx="23.5" fill="#BDDEFD" stroke="black"/>
<circle cx="113" cy="108.044" r="48" fill="#A9F9AC"/>
<circle cx="233" cy="108.044" r="48" fill="#A9F9AC"/>
<circle cx="353" cy="108.044" r="47.5" fill="#A9F9AC" stroke="#3C3078"/>
<path d="M217.566 263.652C217.566 278.628 213.125 293.268 204.804 305.721C196.484 318.173 184.658 327.879 170.821 333.61C156.985 339.341 141.76 340.841 127.071 337.919C112.383 334.997 98.8902 327.785 88.3003 317.196C77.7104 306.606 70.4985 293.113 67.5768 278.425C64.655 263.736 66.1546 248.511 71.8858 234.674C77.617 220.838 87.3225 209.012 99.7749 200.691C112.227 192.371 126.867 187.93 141.844 187.93V263.652H217.566Z" fill="#8066FF"/>
<rect x="255.707" y="191.295" width="145.835" height="145.835" rx="16" fill="white"/>
<path d="M141.844 631.044C131.9 631.044 122.053 629.085 112.866 625.28C103.679 621.475 95.3317 615.897 88.3003 608.866C81.2688 601.834 75.6912 593.487 71.8858 584.3C68.0804 575.113 66.1218 565.266 66.1218 555.322C66.1218 545.378 68.0804 535.531 71.8858 526.344C75.6912 517.157 81.2688 508.81 88.3003 501.778C95.3317 494.747 103.679 489.169 112.866 485.364C122.053 481.559 131.9 479.6 141.844 479.6L141.844 555.322L141.844 631.044Z" fill="#A9F9AC"/>
<path d="M267.486 631.044C257.542 631.044 247.696 629.085 238.509 625.28C229.322 621.475 220.974 615.897 213.943 608.866C206.911 601.834 201.334 593.487 197.528 584.3C193.723 575.113 191.764 565.266 191.764 555.322C191.764 545.378 193.723 535.531 197.528 526.344C201.334 517.157 206.911 508.81 213.943 501.778C220.974 494.747 229.322 489.169 238.509 485.364C247.696 481.559 257.542 479.6 267.486 479.6L267.486 555.322L267.486 631.044Z" fill="white"/>
<path d="M402.103 631.044C392.159 631.044 382.313 629.085 373.126 625.28C363.939 621.475 355.591 615.897 348.56 608.866C341.528 601.834 335.951 593.487 332.145 584.3C328.34 575.113 326.381 565.266 326.381 555.322C326.381 545.378 328.34 535.531 332.145 526.344C335.951 517.157 341.528 508.81 348.56 501.778C355.591 494.747 363.939 489.169 373.126 485.364C382.313 481.559 392.159 479.6 402.103 479.6L402.103 555.322L402.103 631.044Z" fill="#8066FF"/>
<rect x="66.1218" y="375.272" width="335.42" height="81.8919" rx="16" fill="#3C3078"/>
</svg>
