<svg width="561" height="574" viewBox="0 0 561 574" fill="none" xmlns="http://www.w3.org/2000/svg">
<circle cx="274.952" cy="46.4211" r="46.3772" fill="#8066FF"/>
<circle cx="394.794" cy="46.4211" r="46.3772" fill="#8066FF"/>
<circle cx="513.815" cy="46.4211" r="46.3772" fill="#8066FF"/>
<rect x="0.5" y="111.356" width="293.056" height="420.187" rx="23.5" fill="white" stroke="#3C3078"/>
<rect x="244" y="360.044" width="209" height="213" rx="104.5" fill="#A9F9AC"/>
<path d="M119.498 406.013H77.8577V400.518C77.8577 397.85 75.6947 395.687 73.0267 395.687C70.3587 395.687 68.1957 397.85 68.1957 400.518V406.013H26.5555C23.8875 406.013 21.7245 408.176 21.7245 410.844C21.7245 413.512 23.8875 415.675 26.5555 415.675H97.6977C94.9157 424.612 87.9449 442.634 73.0035 460.622C63.8787 449.648 57.6976 438.615 53.6034 429.496C52.5103 427.062 49.6529 425.974 47.2175 427.067C44.7833 428.16 43.696 431.019 44.7884 433.453C49.3109 443.526 56.2077 455.779 66.4932 467.901C59.161 475.507 50.2823 482.882 39.5593 489.317C37.2714 490.689 36.5293 493.657 37.9026 495.945C38.8083 497.455 40.4083 498.291 42.0496 498.291C42.8953 498.291 43.7527 498.069 44.5308 497.602C55.8985 490.781 65.288 482.978 73.0016 475.052C80.802 483.062 90.2006 490.809 101.521 497.602C102.299 498.069 103.157 498.291 104.003 498.291C105.644 498.291 107.244 497.455 108.149 495.945C109.522 493.657 108.78 490.689 106.493 489.317C95.7511 482.872 86.864 475.502 79.5163 467.89C87.1101 458.95 92.6799 450.184 96.6433 442.824C103.056 430.914 106.333 420.902 107.782 415.675H119.498C122.166 415.675 124.329 413.512 124.329 410.844C124.329 408.176 122.166 406.013 119.498 406.013Z" fill="#3C3078"/>
<rect x="97.7413" y="33.3774" width="293.056" height="420.187" rx="23.5" fill="white" stroke="#3C3078"/>
<path d="M337.675 54.4093C336.815 52.2989 334.799 50.9358 332.538 50.9358C332.537 50.9358 332.535 50.9358 332.533 50.9358C330.27 50.9379 328.254 52.3051 327.397 54.4192C327.385 54.4484 327.374 54.478 327.363 54.5072L299.421 128.546C298.661 130.561 299.662 132.816 301.659 133.583C302.112 133.758 302.577 133.84 303.035 133.84C304.593 133.84 306.062 132.882 306.65 131.325L312.66 115.399H352.215L358.167 131.314C358.921 133.33 361.151 134.349 363.151 133.588C365.149 132.827 366.158 130.574 365.404 128.557L337.717 54.515C337.704 54.4801 337.69 54.4447 337.675 54.4093ZM315.606 107.593L332.529 62.7528L349.296 107.593H315.606Z" fill="#3C3078"/>
</svg>
