<svg width="115" height="115" viewBox="0 0 115 115" fill="none" xmlns="http://www.w3.org/2000/svg">
<path d="M107.159 64.8854C107.159 71.4666 105.881 77.9833 103.399 84.0635C100.916 90.1437 97.2778 95.6683 92.6908 100.322C88.1038 104.975 82.6582 108.667 76.665 111.185C70.6718 113.704 64.2484 115 57.7613 115L57.7614 64.8854H107.159Z" fill="#8066FF"/>
<path d="M1.96001e-05 55.9173C2.01702e-05 49.3361 1.28449 42.8194 3.7801 36.7392C6.27569 30.659 9.93355 25.1344 14.5448 20.4809C19.1561 15.8273 24.6305 12.1359 30.6554 9.61735C36.6803 7.09886 43.1378 5.8026 49.6591 5.8026L49.6591 55.9173L1.96001e-05 55.9173Z" fill="#BDDEFD"/>
<path d="M49.6591 115C43.1378 115 36.6803 113.704 30.6554 111.185C24.6305 108.667 19.1561 104.975 14.5448 100.322C9.93356 95.6683 6.2757 90.1437 3.78009 84.0635C1.2845 77.9833 2.80619e-05 71.4666 2.83469e-05 64.8854L49.6591 64.8854L49.6591 115Z" fill="white"/>
<mask id="path-4-inside-1_1_195" fill="white">
<path d="M59.5909 5.31091e-05C66.8674 5.4072e-05 74.0725 1.44641 80.7951 4.25652C87.5176 7.06664 93.6259 11.1855 98.7711 16.3779C103.916 21.5703 107.998 27.7346 110.782 34.5188C113.567 41.3031 115 48.5743 115 55.9175L59.5909 55.9175L59.5909 5.31091e-05Z"/>
</mask>
<path d="M59.5909 5.31091e-05C66.8674 5.4072e-05 74.0725 1.44641 80.7951 4.25652C87.5176 7.06664 93.6259 11.1855 98.7711 16.3779C103.916 21.5703 107.998 27.7346 110.782 34.5188C113.567 41.3031 115 48.5743 115 55.9175L59.5909 55.9175L59.5909 5.31091e-05Z" fill="#A9F9AC" stroke="#3C3078" stroke-width="2" mask="url(#path-4-inside-1_1_195)"/>
</svg>
