<svg width="159" height="87" viewBox="0 0 159 87" fill="none" xmlns="http://www.w3.org/2000/svg">
<mask id="path-1-inside-1_1_206" fill="white">
<path d="M43.0121 44.471C43.0121 38.889 41.9127 33.3617 39.7766 28.2047C37.6404 23.0476 34.5094 18.3618 30.5624 14.4147C26.6153 10.4676 21.9295 7.33668 16.7724 5.20055C11.6154 3.06442 6.08804 1.96497 0.506065 1.96497L0.506065 44.471H43.0121Z"/>
</mask>
<path d="M43.0121 44.471C43.0121 38.889 41.9127 33.3617 39.7766 28.2047C37.6404 23.0476 34.5094 18.3618 30.5624 14.4147C26.6153 10.4676 21.9295 7.33668 16.7724 5.20055C11.6154 3.06442 6.08804 1.96497 0.506065 1.96497L0.506065 44.471H43.0121Z" fill="white" stroke="#3C3078" stroke-width="2" mask="url(#path-1-inside-1_1_206)"/>
<path d="M31.2334 85.9528C42.5067 85.9528 53.3183 81.4745 61.2897 73.5031C69.2611 65.5316 73.7394 54.7201 73.7394 43.4467C73.7394 32.1734 69.2611 21.3618 61.2897 13.3904C53.3183 5.41898 42.5067 0.940676 31.2334 0.940674L31.2334 43.4467L31.2334 85.9528Z" fill="#A9F9AC"/>
<path d="M41.9878 44.4711C41.9878 52.878 44.4807 61.0961 49.1514 68.0862C53.822 75.0763 60.4605 80.5244 68.2275 83.7416C75.9945 86.9588 84.541 87.8005 92.7864 86.1604C101.032 84.5203 108.606 80.472 114.55 74.5274C120.495 68.5829 124.543 61.009 126.183 52.7636C127.823 44.5183 126.982 35.9717 123.764 28.2048C120.547 20.4378 115.099 13.7993 108.109 9.12863C101.119 4.458 92.9008 1.96507 84.4939 1.96507L84.4939 44.4711L41.9878 44.4711Z" fill="#8066FF"/>
</svg>
