<svg width="119" height="123" viewBox="0 0 119 123" fill="none" xmlns="http://www.w3.org/2000/svg">
<rect x="32.3482" y="0.5" width="85.7589" height="94.5446" rx="7.5" fill="white" stroke="#3C3078"/>
<circle cx="35.9649" cy="87.0351" r="35.9649" fill="#A9F9AC"/>
<line x1="36.4649" y1="66.1757" x2="36.4649" y2="89.8463" stroke="#3C3078"/>
<line x1="36.3185" y1="90.0841" x2="53.0562" y2="106.822" stroke="#3C3078"/>
<path d="M96.0905 10.9821C97.4602 10.9821 98.8165 11.2519 100.082 11.7761C101.347 12.3002 102.497 13.0685 103.466 14.037C104.434 15.0055 105.202 16.1552 105.726 17.4206C106.251 18.686 106.52 20.0423 106.52 21.412C106.52 22.7816 106.251 24.1379 105.726 25.4033C105.202 26.6687 104.434 27.8185 103.466 28.787C102.497 29.7555 101.347 30.5237 100.082 31.0479C98.8165 31.572 97.4602 31.8418 96.0905 31.8418L96.0905 21.412L96.0905 10.9821Z" fill="#8066FF"/>
</svg>
