<svg width="17" height="27" viewBox="0 0 17 27" fill="none" xmlns="http://www.w3.org/2000/svg">
<path d="M0.351953 7.98145C0.328342 6.84811 0.552648 5.762 1.02487 4.72311C1.49709 3.66061 2.1464 2.75158 2.97279 1.99603C3.72834 1.33492 4.60195 0.839083 5.59362 0.508527C6.58529 0.177971 7.61237 0.0126933 8.67487 0.0126933C9.85543 0.0126933 10.9533 0.225193 11.9686 0.650194C12.9839 1.05158 13.8457 1.66547 14.554 2.49186C15.2624 3.2238 15.8054 4.0738 16.1832 5.04186C16.561 5.98631 16.7499 6.97797 16.7499 8.01686C16.7499 9.40992 16.4429 10.6377 15.829 11.7002C15.2388 12.7627 14.2589 13.9433 12.8895 15.2419L5.48737 22.7502H16.502V26.0085H0.210287V22.7502L10.9415 12.3377C12.4526 10.8974 13.2082 9.44533 13.2082 7.98145C13.2082 7.39117 13.102 6.81269 12.8895 6.24603C12.677 5.67936 12.37 5.18353 11.9686 4.75853C11.0478 3.76686 9.89084 3.27103 8.49779 3.27103C7.90751 3.27103 7.34084 3.38908 6.79779 3.62519C6.25473 3.83769 5.7707 4.14464 5.3457 4.54603C4.87348 4.97103 4.50751 5.49047 4.24779 6.10436C3.98806 6.69464 3.8582 7.32033 3.8582 7.98145H0.351953Z" fill="#BDDEFD"/>
</svg>
