<svg width="18" height="27" viewBox="0 0 18 27" fill="none" xmlns="http://www.w3.org/2000/svg">
<path d="M15.5067 12.5502C16.1678 13.2821 16.6518 14.1203 16.9588 15.0648C17.2893 15.9856 17.4546 16.9655 17.4546 18.0044C17.4546 19.303 17.2067 20.5308 16.7109 21.6877C16.2387 22.8446 15.5303 23.8127 14.5859 24.5919C13.8067 25.2294 12.9331 25.7134 11.965 26.0439C11.0206 26.3981 10.0525 26.5634 9.06087 26.5398C8.06921 26.5634 7.08935 26.3981 6.12129 26.0439C5.15323 25.7134 4.27962 25.2294 3.50046 24.5919C2.27268 23.6002 1.41087 22.3016 0.915039 20.696L4.20879 19.7752C4.53935 20.7905 5.05879 21.5814 5.76712 22.1481C6.71157 22.9037 7.79768 23.2814 9.02546 23.2814C10.3241 23.2342 11.4102 22.8446 12.2838 22.1127C12.8505 21.6405 13.2637 21.062 13.5234 20.3773C13.8067 19.6926 13.9484 18.9606 13.9484 18.1814C13.9484 16.5287 13.4289 15.2301 12.39 14.2856C11.4928 13.4592 10.3595 13.046 8.99004 13.046C8.16365 13.046 7.32546 13.2703 6.47546 13.7189L4.84629 10.9919L12.4609 3.80228H1.90671V0.543943H17.1005V3.90853L10.4775 10.1773C12.5081 10.3662 14.1845 11.1571 15.5067 12.5502Z" fill="#BDDEFD"/>
</svg>
