<svg width="16" height="32" viewBox="0 0 16 32" fill="none" xmlns="http://www.w3.org/2000/svg">
<path d="M16 32C13.8988 32 11.8183 31.5861 9.87706 30.7821C7.93585 29.978 6.17203 28.7994 4.68629 27.3137C3.20055 25.828 2.022 24.0641 1.21793 22.1229C0.413852 20.1817 -7.91226e-07 18.1011 -6.99382e-07 16C-6.07538e-07 13.8988 0.413852 11.8183 1.21793 9.87706C2.022 7.93585 3.20055 6.17203 4.68629 4.68629C6.17203 3.20055 7.93586 2.022 9.87707 1.21793C11.8183 0.413851 13.8989 -9.74915e-07 16 -6.99382e-07L16 16L16 32Z" fill="#BDDEFD"/>
</svg>
