<svg width="160" height="36" viewBox="0 0 160 36" fill="none" xmlns="http://www.w3.org/2000/svg">
<path d="M8.41082 5.625C8.22266 5.2375 8.04077 4.93125 7.86515 4.70625C7.68953 4.48125 7.4512 4.28125 7.15014 4.10625C6.62328 3.78125 6.05253 3.61875 5.43787 3.61875C4.83575 3.61875 4.32771 3.74375 3.91376 3.99375C3.68797 4.13125 3.51235 4.3 3.38691 4.5C3.27401 4.7 3.21756 4.90625 3.21756 5.11875C3.21756 5.36875 3.30537 5.58125 3.48099 5.75625C3.69424 5.98125 4.20855 6.21875 5.02391 6.46875L7.37593 7.14375C7.97805 7.31875 8.46727 7.50625 8.84359 7.70625C9.23246 7.89375 9.57742 8.13125 9.87848 8.41875C10.2924 8.80625 10.606 9.24375 10.8193 9.73125C11.0325 10.2188 11.1392 10.7375 11.1392 11.2875C11.1392 11.875 10.9824 12.4563 10.6688 13.0313C10.3552 13.6063 9.92866 14.0688 9.38926 14.4188C8.90004 14.7438 8.35437 14.9688 7.75225 15.0938C7.16268 15.2188 6.47276 15.2813 5.68248 15.2813C4.72913 15.2813 3.87613 15.1438 3.12348 14.8688C2.38338 14.5813 1.7499 14.1125 1.22305 13.4625C0.658565 12.7625 0.250882 11.8875 0 10.8375L2.59663 10.1438C2.72207 10.8563 2.94786 11.4125 3.27401 11.8125C3.53744 12.1625 3.89494 12.4313 4.34653 12.6188C4.81066 12.8063 5.28734 12.9 5.77656 12.9C6.15288 12.9 6.53548 12.85 6.92434 12.75C7.32575 12.6375 7.64563 12.4938 7.88397 12.3188C8.24775 12.0563 8.42964 11.6875 8.42964 11.2125C8.42964 10.825 8.29165 10.5125 8.01568 10.275C7.72717 10.025 7.32575 9.825 6.81145 9.675L4.29008 8.94375C3.14857 8.63125 2.28303 8.2125 1.69345 7.6875C1.30459 7.3625 1.0098 6.96875 0.809095 6.50625C0.620933 6.04375 0.526852 5.5625 0.526852 5.0625C0.526852 4.3375 0.73383 3.675 1.14779 3.075C1.56174 2.475 2.08859 2.03125 2.72834 1.74375C3.17993 1.54375 3.63152 1.40625 4.0831 1.33125C4.54724 1.25625 5.049 1.21875 5.5884 1.21875C6.71737 1.24375 7.66445 1.4625 8.42964 1.875C9.00666 2.1875 9.5147 2.60625 9.95374 3.13125C10.3928 3.64375 10.744 4.24375 11.0074 4.93125L8.41082 5.625Z" fill="#3C3078"/>
<path d="M24.4678 6.0375C24.4678 6.4875 24.3863 6.9375 24.2232 7.3875C24.0601 7.825 23.8406 8.23125 23.5646 8.60625C23.1632 9.15625 22.6364 9.59375 21.9841 9.91875C21.3443 10.2438 20.6607 10.4063 19.9331 10.4063H16.3016V15H13.7426V1.5H19.9331C20.3973 1.5 20.8551 1.56875 21.3067 1.70625C21.7583 1.84375 22.1785 2.05625 22.5674 2.34375C22.9563 2.61875 23.2887 2.94375 23.5646 3.31875C23.8532 3.70625 24.0727 4.1375 24.2232 4.6125C24.3863 5.075 24.4678 5.55 24.4678 6.0375ZM21.4572 7.2C21.7332 6.825 21.8712 6.4375 21.8712 6.0375C21.8712 5.4625 21.7081 4.99375 21.382 4.63125C21.1938 4.41875 20.9617 4.24375 20.6858 4.10625C20.4223 3.96875 20.1652 3.9 19.9143 3.9H16.3016V8.025H19.9143C20.1777 8.025 20.4537 7.95 20.7422 7.8C21.0307 7.65 21.2691 7.45 21.4572 7.2Z" fill="#3C3078"/>
<path d="M33.357 12.9H27.8251L27.1853 15H24.5511L28.6906 1.5H32.5103L36.6499 15H34.0156L33.357 12.9ZM32.6232 10.5L30.5722 3.9L28.5589 10.5H32.6232Z" fill="#3C3078"/>
<path d="M50.3584 11.0625C50.0949 11.825 49.7249 12.4938 49.2482 13.0688C48.6461 13.7938 47.906 14.3438 47.0279 14.7188C46.1624 15.0938 45.2404 15.2813 44.2619 15.2813C43.2584 15.2813 42.3176 15.0875 41.4395 14.7C40.5614 14.3125 39.8401 13.7688 39.2757 13.0688C38.2094 11.7813 37.6763 10.175 37.6763 8.25C37.6763 6.3 38.2094 4.6875 39.2757 3.4125C39.8527 2.6875 40.574 2.14375 41.4395 1.78125C42.3176 1.40625 43.2584 1.21875 44.2619 1.21875C45.2655 1.21875 46.2 1.40625 47.0655 1.78125C47.9311 2.15625 48.6586 2.7 49.2482 3.4125C49.8002 4.1 50.2141 4.9 50.4901 5.8125L47.8558 6.2625C47.6802 5.7125 47.467 5.28125 47.2161 4.96875C46.8899 4.53125 46.4634 4.19375 45.9366 3.95625C45.4097 3.71875 44.8515 3.6 44.2619 3.6C43.6598 3.6 43.0953 3.71875 42.5685 3.95625C42.0542 4.19375 41.6339 4.53125 41.3078 4.96875C40.7182 5.71875 40.4109 6.8125 40.3858 8.25C40.4109 9.675 40.7182 10.7688 41.3078 11.5313C41.6214 11.9688 42.0354 12.3063 42.5497 12.5438C43.064 12.7688 43.6096 12.8813 44.1867 12.8813C44.8013 12.8813 45.3721 12.7688 45.8989 12.5438C46.4383 12.3188 46.8774 11.9813 47.2161 11.5313C47.4795 11.1688 47.6802 10.7688 47.8182 10.3313L50.3584 11.0625Z" fill="#3C3078"/>
<path d="M55.8536 4.05V6.975H61.0092V9.525H55.8536V12.45H62.1382V15H53.2946V1.5H62.1382V4.05H55.8536Z" fill="#3C3078"/>
<path d="M75.6503 4.95C76.1646 5.975 76.4218 7.075 76.4218 8.25C76.4218 9.425 76.1646 10.525 75.6503 11.55C75.0984 12.6 74.3018 13.4375 73.2607 14.0625C72.2195 14.6875 71.1219 15 69.9678 15H65.3203V1.5H69.9678C71.1219 1.5 72.2195 1.8125 73.2607 2.4375C74.3018 3.0625 75.0984 3.9 75.6503 4.95ZM73.3736 10.3875C73.6746 9.75 73.8252 9.075 73.8252 8.3625C73.8252 7.5 73.6746 6.75 73.3736 6.1125C73.0474 5.45 72.5645 4.91875 71.9247 4.51875C71.285 4.11875 70.5888 3.9125 69.8361 3.9L67.9169 3.88125V12.6188L69.8361 12.6C70.5386 12.5875 71.2223 12.3813 71.8871 11.9813C72.5519 11.5813 73.0474 11.05 73.3736 10.3875Z" fill="#3C3078"/>
<path d="M10.7628 28.6063C10.3489 29.1813 9.82203 29.6188 9.18228 29.9188L11.666 35H8.76833L6.5292 30.4062H3.4998V35H0.940807V21.5H7.13132C7.59545 21.5 8.05331 21.5687 8.5049 21.7062C8.95649 21.8437 9.37672 22.0563 9.76558 22.3438C10.1544 22.6188 10.4869 22.9437 10.7628 23.3187C11.0514 23.7062 11.2709 24.1375 11.4214 24.6125C11.5845 25.075 11.666 25.55 11.666 26.0375C11.666 26.4875 11.5845 26.9375 11.4214 27.3875C11.2583 27.825 11.0388 28.2313 10.7628 28.6063ZM3.4998 28.025H7.1125C7.37593 28.025 7.6519 27.95 7.94042 27.8C8.22893 27.65 8.46727 27.45 8.65543 27.2C8.9314 26.825 9.06938 26.4375 9.06938 26.0375C9.06938 25.4625 8.90631 24.9937 8.58016 24.6312C8.392 24.4187 8.15994 24.2438 7.88397 24.1063C7.62054 23.9688 7.36339 23.9 7.1125 23.9H3.4998V28.025Z" fill="#3C3078"/>
<path d="M16.4956 24.05V26.975H21.6513V29.525H16.4956V32.45H22.7802V35H13.9367V21.5H22.7802V24.05H16.4956Z" fill="#3C3078"/>
<path d="M36.6875 26.0375C36.6875 26.4875 36.606 26.9375 36.4429 27.3875C36.2798 27.825 36.0603 28.2313 35.7843 28.6063C35.3829 29.1563 34.8561 29.5938 34.2038 29.9188C33.564 30.2438 32.8804 30.4062 32.1528 30.4062H28.5213V35H25.9623V21.5H32.1528C32.6169 21.5 33.0748 21.5687 33.5264 21.7062C33.978 21.8437 34.3982 22.0563 34.7871 22.3438C35.1759 22.6188 35.5083 22.9437 35.7843 23.3187C36.0728 23.7062 36.2924 24.1375 36.4429 24.6125C36.606 25.075 36.6875 25.55 36.6875 26.0375ZM33.6769 27.2C33.9529 26.825 34.0909 26.4375 34.0909 26.0375C34.0909 25.4625 33.9278 24.9937 33.6016 24.6312C33.4135 24.4187 33.1814 24.2438 32.9054 24.1063C32.642 23.9688 32.3849 23.9 32.134 23.9H28.5213V28.025H32.134C32.3974 28.025 32.6734 27.95 32.9619 27.8C33.2504 27.65 33.4888 27.45 33.6769 27.2Z" fill="#3C3078"/>
<path d="M41.6759 24.05V26.975H46.8315V29.525H41.6759V32.45H47.9605V35H39.1169V21.5H47.9605V24.05H41.6759Z" fill="#3C3078"/>
<path d="M60.9269 24.05H56.6557V35H54.0967V24.05H49.8254V21.5H60.9269V24.05Z" fill="#3C3078"/>
<path d="M65.539 21.5V35H62.98V21.5H65.539Z" fill="#3C3078"/>
<path d="M77.7457 24.05H73.4745V35H70.9155V24.05H66.6442V21.5H77.7457V24.05Z" fill="#3C3078"/>
<path d="M82.3578 21.5V35H79.7988V21.5H82.3578Z" fill="#3C3078"/>
<path d="M91.5293 35.2812C90.5383 35.2812 89.6038 35.0938 88.7257 34.7188C87.8476 34.3312 87.12 33.7812 86.543 33.0687C86.0161 32.4312 85.621 31.7 85.3576 30.875C85.0942 30.05 84.9624 29.175 84.9624 28.25C84.9624 27.325 85.0942 26.45 85.3576 25.625C85.621 24.7875 86.0161 24.05 86.543 23.4125C87.12 22.6875 87.8413 22.1438 88.7069 21.7812C89.5849 21.4062 90.5257 21.2188 91.5293 21.2188C92.5328 21.2188 93.4673 21.4062 94.3329 21.7812C95.1984 22.1562 95.926 22.7 96.5156 23.4125C97.055 24.075 97.4438 24.8063 97.6822 25.6063C97.933 26.4063 98.071 27.2875 98.0961 28.25C98.071 29.225 97.933 30.1125 97.6822 30.9125C97.4438 31.7 97.055 32.4187 96.5156 33.0687C95.9134 33.7937 95.1733 34.3437 94.2953 34.7188C93.4297 35.0938 92.5077 35.2812 91.5293 35.2812ZM91.454 32.8812C92.0812 32.8812 92.6582 32.7688 93.1851 32.5438C93.712 32.3188 94.1447 31.9813 94.4834 31.5312C95.0855 30.7313 95.3866 29.6375 95.3866 28.25C95.3866 26.85 95.0855 25.7562 94.4834 24.9688C94.1573 24.5312 93.737 24.2 93.2227 23.975C92.721 23.7375 92.1816 23.6188 91.6045 23.6188C90.9773 23.6188 90.394 23.7312 89.8546 23.9562C89.3278 24.1812 88.9013 24.5187 88.5751 24.9688C87.9856 25.7188 87.6782 26.8125 87.6532 28.25C87.6782 29.675 87.9856 30.7687 88.5751 31.5312C88.8887 31.9687 89.3027 32.3063 89.817 32.5438C90.3313 32.7688 90.877 32.8812 91.454 32.8812Z" fill="#3C3078"/>
<path d="M109.384 30.3125V21.5H111.981V35H109.723L103.514 26.1875V35H100.898V21.5H103.156L109.384 30.3125Z" fill="#3C3078"/>
<circle cx="91.4375" cy="8" r="8" fill="#8066FF"/>
<circle cx="111.438" cy="8" r="8" fill="#8066FF"/>
<circle cx="131.438" cy="8" r="8" fill="#A9F9AC"/>
<ellipse cx="131.901" cy="28" rx="8.02822" ry="8" fill="#8066FF"/>
</svg>
