<svg width="462" height="545" viewBox="0 0 462 545" fill="none" xmlns="http://www.w3.org/2000/svg">
<ellipse cx="28.323" cy="28.2733" rx="28.323" ry="28.2733" fill="#A9F9AC"/>
<ellipse cx="92.969" cy="28.2733" rx="28.323" ry="28.2733" fill="#A9F9AC"/>
<ellipse cx="157.615" cy="28.2733" rx="28.323" ry="28.2733" fill="#A9F9AC"/>
<ellipse cx="222.261" cy="28.2733" rx="28.323" ry="28.2733" fill="#A9F9AC"/>
<path d="M79.5 111.547C79.5 132.798 61.8273 150.047 40 150.047C18.1727 150.047 0.5 132.798 0.5 111.547C0.5 90.2955 18.1727 73.0466 40 73.0466C61.8273 73.0466 79.5 90.2955 79.5 111.547Z" fill="#3C3078" stroke="#3C3078"/>
<circle cx="135" cy="111.547" r="39" fill="#3C3078"/>
<ellipse cx="230" cy="111.547" rx="40" ry="39" fill="#3C3078"/>
<ellipse cx="325.5" cy="111.547" rx="39.5" ry="39" fill="#3C3078"/>
<circle cx="420" cy="111.547" r="39" fill="#3C3078"/>
<rect y="166.547" width="160" height="108" rx="16" fill="#BDDEFD"/>
<rect x="176" y="166.547" width="286" height="108" rx="16" fill="#8066FF"/>
<path d="M137.239 359.295C137.239 396.987 106.63 427.544 68.8696 427.544C31.1093 427.544 0.5 396.987 0.5 359.295C0.5 321.603 31.1093 291.047 68.8696 291.047C106.63 291.047 137.239 321.603 137.239 359.295Z" fill="#BDDEFD" stroke="#3C3078"/>
<ellipse cx="230.609" cy="359.295" rx="68.8696" ry="68.7487" fill="#BDDEFD"/>
<ellipse cx="392.348" cy="359.295" rx="68.8696" ry="68.7487" fill="#BDDEFD"/>
<rect x="0.5" y="444.544" width="461" height="99" rx="15.5" fill="#A9F9AC" stroke="#3C3078"/>
</svg>
